<?xml version="1.0" encoding="UTF-8" standalone="no"?>
<svg
   id="Layer_1"
   data-name="Layer 1"
   viewBox="0 0 480 182"
   width="100"
   height="34"
   version="1.1"
   sodipodi:docname="wero.svg"
   inkscape:version="1.4.2 (ebf0e940, 2025-05-08)"
   xmlns:inkscape="http://www.inkscape.org/namespaces/inkscape"
   xmlns:sodipodi="http://sodipodi.sourceforge.net/DTD/sodipodi-0.dtd"
   xmlns="http://www.w3.org/2000/svg"
   xmlns:svg="http://www.w3.org/2000/svg">
  <sodipodi:namedview
     id="namedview19"
     pagecolor="#ffffff"
     bordercolor="#111111"
     borderopacity="1"
     inkscape:showpageshadow="0"
     inkscape:pageopacity="0"
     inkscape:pagecheckerboard="1"
     inkscape:deskcolor="#d1d1d1"
     inkscape:zoom="2.7194995"
     inkscape:cx="71.520513"
     inkscape:cy="13.605445"
     inkscape:window-width="1512"
     inkscape:window-height="921"
     inkscape:window-x="0"
     inkscape:window-y="33"
     inkscape:window-maximized="1"
     inkscape:current-layer="Layer_1" />
  <defs
     id="defs4">
    <linearGradient
       id="linear-gradient"
       x1="352.72"
       y1="95.3"
       x2="330.2"
       y2="67.73"
       gradientTransform="translate(0 184) scale(1 -1)"
       gradientUnits="userSpaceOnUse">
      <stop
         offset=".02"
         stop-color="#1d1c1c"
         stop-opacity="0"
         id="stop1" />
      <stop
         offset=".68"
         stop-color="#1d1c1c"
         id="stop2" />
    </linearGradient>
    <linearGradient
       id="linear-gradient-2"
       x1="313.44"
       y1="89.45"
       x2="336.52"
       y2="112.26"
       gradientTransform="translate(0 184) scale(1 -1)"
       gradientUnits="userSpaceOnUse">
      <stop
         offset=".02"
         stop-color="#1d1c1c"
         stop-opacity="0"
         id="stop3" />
      <stop
         offset=".68"
         stop-color="#1d1c1c"
         id="stop4" />
    </linearGradient>
  </defs>
  <g
     id="g20"
     transform="translate(0,0.623591)">
    <path
       d="m 338.3857,128.14159 h -19.46702 l 12.17607,-75.287648 h 19.46595 z m 70.56966,-73.447079 c -3.83976,-1.523339 -9.92992,-3.205293 -17.46039,-3.205293 -19.2243,0 -32.76189,10.251401 -32.84493,24.907816 -0.15968,10.813472 9.69253,16.819536 17.06119,20.425091 7.53153,3.684325 10.09171,6.089095 10.09171,9.373165 -0.0766,5.04373 -6.0859,7.36866 -11.69064,7.36866 -7.77211,0 -11.93654,-1.19866 -18.26516,-4.00475 l -2.56339,-1.20292 -2.72412,16.90044 c 4.56576,2.08009 12.97766,3.92598 21.71104,4.00688 20.42616,0 33.72424,-10.09278 33.88179,-25.71153 0.0777,-8.570512 -5.12464,-15.137584 -16.34051,-20.503867 -6.80871,-3.444811 -10.97847,-5.767611 -10.97847,-9.292261 0.0798,-3.204229 3.52679,-6.486167 11.21267,-6.486167 6.32862,-0.160744 10.97848,1.360467 14.501,2.882741 l 1.76072,0.79946 z m 25.87334,46.775339 c 1.60318,-4.325173 7.77212,-21.064869 7.77212,-21.064869 -0.0809,0.160744 1.59998,-4.405015 2.56125,-7.207917 l 1.36047,6.487232 c 0,0 3.68645,18.021387 4.48698,21.785554 z m 24.02958,-48.615908 h -15.05774 c -4.64348,0 -8.17132,1.360467 -10.17476,6.246648 l -28.91576,69.03993 h 20.42616 c 0,0 3.36284,-9.29225 4.08565,-11.29357 h 24.99405 c 0.55887,2.64323 2.32279,11.29357 2.32279,11.29357 h 18.02459 z m -156.19919,0 -19.06463,51.338968 -2.08328,-10.41214 C 277.98653,81.766512 266.93247,68.713275 254.59673,62.222849 l 17.46251,65.838901 h 20.58584 l 30.59878,-75.207808 z"
       style="fill:#00579f;stroke-width:1.06452"
       id="path1" />
    <path
       d="m 265.89136,52.853942 h -31.32053 l -0.32042,1.52121 c 24.43197,6.247712 40.61279,21.307585 47.26077,39.408812 l -6.80872,-34.601405 c -1.12095,-4.808471 -4.56576,-6.170002 -8.8111,-6.328617 z"
       style="fill:#faa61a;stroke-width:1.06452"
       id="path2" />
  </g>
  <g
     id="g19"
     transform="translate(0,-1.9710279)">
    <path
       d="m 53.103554,156.91995 v -8.52188 c 0,-3.2653 -1.985942,-5.40112 -5.395765,-5.40112 -1.707588,0 -3.559706,0.56741 -4.833706,2.41953 -0.995647,-1.55235 -2.419529,-2.41953 -4.55,-2.41953 a 4.5767647,4.5767647 0 0 0 -3.977235,1.99129 v -1.70759 h -2.981589 v 13.6393 h 2.981589 v -7.53159 c 0,-2.41418 1.274,-3.55971 3.265294,-3.55971 1.980588,0 2.976235,1.274 2.976235,3.55971 v 7.53159 h 2.981588 v -7.53159 c 0,-2.41418 1.423883,-3.55971 3.259942,-3.55971 1.985941,0 2.981588,1.274 2.981588,3.55971 v 7.53159 z m 44.204587,-13.6393 h -4.8337 v -4.12176 h -2.98159 v 4.12176 h -2.69789 v 2.69789 h 2.69789 v 6.26294 c 0,3.12612 1.274,4.96217 4.68382,4.96217 1.274,0 2.69788,-0.42823 3.69353,-0.99564 l -0.85647,-2.56406 a 4.7641177,4.7641177 0 0 1 -2.56941,0.71194 c -1.42388,0 -1.98594,-0.85647 -1.98594,-2.26965 v -6.10235 h 4.8337 v -2.70324 z m 25.297999,-0.29976 a 4.0414706,4.0414706 0 0 0 -3.5597,1.98594 v -1.70223 h -2.98159 v 13.63929 h 2.98159 v -7.67612 c 0,-2.26429 0.99029,-3.5597 2.84776,-3.5597 0.56206,0 1.274,0.14988 1.85212,0.2837 l 0.85647,-2.84776 c -0.58883,-0.11777 -1.43459,-0.11777 -1.99665,-0.11777 z m -38.230699,1.42388 c -1.42389,-0.99029 -3.40983,-1.42388 -5.54565,-1.42388 -3.40983,0 -5.67412,1.70759 -5.67412,4.40547 0,2.26965 1.70224,3.55971 4.68382,3.97188 l 1.42389,0.14989 c 1.55235,0.2837 2.41417,0.71194 2.41417,1.42388 0,0.99564 -1.14017,1.70759 -3.12611,1.70759 -1.98595,0 -3.55971,-0.71195 -4.55,-1.42389 l -1.42924,2.2643 c 1.55235,1.14553 3.69353,1.70759 5.82935,1.70759 3.97189,0 6.25759,-1.85212 6.25759,-4.40547 0,-2.41418 -1.85747,-3.69353 -4.68382,-4.12177 l -1.42388,-0.14988 c -1.27936,-0.14988 -2.26965,-0.42824 -2.26965,-1.274 0,-0.9903 0.99029,-1.55235 2.56941,-1.55235 1.70224,0 3.40447,0.70658 4.26629,1.14017 z m 79.287759,-1.42388 a 4.0414706,4.0414706 0 0 0 -3.55971,1.98594 v -1.70223 h -2.98158 v 13.63929 h 2.98158 v -7.67612 c 0,-2.26429 0.9903,-3.5597 2.84777,-3.5597 0.56206,0 1.274,0.14988 1.85212,0.2837 l 0.85647,-2.81564 c -0.57277,-0.14989 -1.41853,-0.14989 -1.99665,-0.14989 z m -38.08082,7.11941 c 0,4.12177 2.84776,7.10335 7.25323,7.10335 1.98594,0 3.40983,-0.42823 4.83371,-1.55235 l -1.42388,-2.41953 c -1.14018,0.85647 -2.26965,1.274 -3.55971,1.274 -2.41953,0 -4.12177,-1.70759 -4.12177,-4.40547 0,-2.56941 1.70224,-4.27165 4.12177,-4.40012 1.274,0 2.41953,0.42824 3.55971,1.274 l 1.42388,-2.41953 c -1.42388,-1.14017 -2.84777,-1.55235 -4.83371,-1.55235 -4.40547,-0.0214 -7.25323,2.97624 -7.25323,7.098 z m 27.56764,0 v -6.81429 h -2.98158 v 1.70759 c -0.99565,-1.27936 -2.41953,-1.9913 -4.27165,-1.9913 -3.83806,0 -6.81965,2.98159 -6.81965,7.10335 0,4.12177 2.98159,7.10336 6.81965,7.10336 1.98594,0 3.40982,-0.71194 4.27165,-1.98594 v 1.70223 h 2.98158 z m -10.94676,0 c 0,-2.41417 1.5577,-4.40012 4.12176,-4.40012 2.41953,0 4.12177,1.85212 4.12177,4.40012 0,2.41953 -1.70224,4.40547 -4.12177,4.40547 -2.548,-0.14988 -4.12176,-2.002 -4.12176,-4.40547 z m -35.65594,-7.11941 c -3.97724,0 -6.824999,2.84776 -6.824999,7.10335 0,4.27165 2.847759,7.10336 6.969529,7.10336 1.99129,0 3.97723,-0.56206 5.54564,-1.85212 l -1.42388,-2.14118 c -1.14017,0.86183 -2.56406,1.42924 -3.97188,1.42924 -1.85212,0 -3.69353,-0.86183 -4.12177,-3.2653 h 10.08495 v -1.14017 c 0.12847,-4.38942 -2.43559,-7.23718 -6.26295,-7.23718 z m 0,2.56941 c 1.85212,0 3.12612,1.14018 3.40982,3.25994 h -7.10335 c 0.27835,-1.83606 1.55235,-3.26529 3.69353,-3.26529 z m 74.03117,4.55 v -12.21541 h -2.97623 v 7.10335 c -0.99565,-1.27935 -2.41953,-1.99129 -4.27165,-1.99129 -3.84341,0 -6.81965,2.98159 -6.81965,7.10335 0,4.12177 2.97624,7.10335 6.81965,7.10335 1.98594,0 3.40983,-0.71194 4.27165,-1.98594 v 1.70224 h 2.97623 z m -10.94141,0 c 0,-2.41417 1.55236,-4.40012 4.12177,-4.40012 2.41953,0 4.12176,1.85212 4.12176,4.40012 0,2.41953 -1.70223,4.40547 -4.12176,4.40547 -2.56941,-0.14988 -4.12177,-2.002 -4.12177,-4.40547 z m -99.762762,0 v -6.81429 H 66.89273 v 1.70759 c -0.990294,-1.27936 -2.414176,-1.9913 -4.271647,-1.9913 -3.838059,0 -6.819647,2.98159 -6.819647,7.10335 0,4.12177 2.981588,7.10336 6.819647,7.10336 1.991294,0 3.409824,-0.71194 4.271647,-1.98594 v 1.70223 h 2.981588 z m -11.080588,0 c 0,-2.41417 1.563059,-4.40012 4.127118,-4.40012 2.419529,0 4.121765,1.85212 4.121765,4.40012 0,2.41953 -1.702236,4.40547 -4.121765,4.40547 -2.569412,-0.14988 -4.121765,-2.002 -4.121765,-4.40547 z"
       style="stroke-width:0.165556"
       id="path1-2" />
    <path
       fill="#ff5a00"
       d="M 83.385141,39.674473 H 128.15179 V 120.10777 H 83.385141 Z"
       id="path2-4"
       style="stroke-width:5.35294" />
    <path
       fill="#eb001b"
       d="M 86.361381,79.89112 A 51.302588,51.302588 0 0 1 105.83538,39.674473 50.879706,50.879706 0 0 0 74.279791,28.733061 51.125941,51.125941 0 0 0 23.12173,79.89112 51.125941,51.125941 0 0 0 74.279791,131.04383 c 11.93706,0 22.87847,-4.12176 31.555589,-10.94141 A 51.051,51.051 0 0 1 86.361381,79.89112 Z"
       id="path3"
       style="stroke-width:5.35294" />
    <path
       fill="#f79e1b"
       d="m 188.54367,79.89112 a 51.125941,51.125941 0 0 1 -51.15806,51.15271 c -11.93706,0 -22.87847,-4.12176 -31.55023,-10.94141 a 50.879706,50.879706 0 0 0 19.46864,-40.2113 51.302588,51.302588 0 0 0 -19.46864,-40.216647 50.799412,50.799412 0 0 1 31.53417,-10.941412 c 28.29565,0 51.17412,23.028353 51.17412,51.158059 z"
       id="path4"
       style="stroke-width:5.35294" />
  </g>
</svg>
